<svg width="512" height="512" viewBox="0 0 512 512" fill="none" xmlns="http://www.w3.org/2000/svg">
<circle cx="256" cy="256" r="256" fill="white"/>
<path d="M103.725 274.464C101.058 274.464 98.525 273.797 96.125 272.464C93.8583 271.131 92.0583 269.331 90.725 267.064C89.3916 264.797 88.725 262.131 88.725 259.064C88.725 256.264 89.3916 253.731 90.725 251.464C92.0583 249.197 93.8583 247.397 96.125 246.064C98.525 244.731 101.058 244.064 103.725 244.064C106.392 244.064 108.858 244.731 111.125 246.064C113.392 247.397 115.192 249.197 116.525 251.464C117.992 253.731 118.725 256.264 118.725 259.064C118.725 262.131 117.992 264.797 116.525 267.064C115.192 269.331 113.392 271.131 111.125 272.464C108.858 273.797 106.392 274.464 103.725 274.464ZM151.349 313.864V201.864H161.109L238.389 299.144H233.269V201.864H244.949V313.864H235.189L158.069 216.584H163.189V313.864H151.349ZM281.506 313.864V201.864H323.426C332.919 201.864 341.079 203.411 347.906 206.504C354.732 209.491 359.959 213.864 363.586 219.624C367.319 225.277 369.186 232.157 369.186 240.264C369.186 248.157 367.319 254.984 363.586 260.744C359.959 266.397 354.732 270.771 347.906 273.864C341.079 276.851 332.919 278.344 323.426 278.344H288.066L293.346 272.904V313.864H281.506ZM357.986 313.864L329.186 273.224H341.986L370.946 313.864H357.986ZM293.346 273.864L288.066 268.264H323.106C334.306 268.264 342.786 265.811 348.546 260.904C354.412 255.997 357.346 249.117 357.346 240.264C357.346 231.304 354.412 224.371 348.546 219.464C342.786 214.557 334.306 212.104 323.106 212.104H288.066L293.346 206.504V273.864ZM408.491 274.464C405.824 274.464 403.291 273.797 400.891 272.464C398.624 271.131 396.824 269.331 395.491 267.064C394.157 264.797 393.491 262.131 393.491 259.064C393.491 256.264 394.157 253.731 395.491 251.464C396.824 249.197 398.624 247.397 400.891 246.064C403.291 244.731 405.824 244.064 408.491 244.064C411.157 244.064 413.624 244.731 415.891 246.064C418.157 247.397 419.957 249.197 421.291 251.464C422.757 253.731 423.491 256.264 423.491 259.064C423.491 262.131 422.757 264.797 421.291 267.064C419.957 269.331 418.157 271.131 415.891 272.464C413.624 273.797 411.157 274.464 408.491 274.464Z" fill="#054945"/>
</svg>
